<svg width="146" height="42" viewBox="0 0 146 42" xmlns="http://www.w3.org/2000/svg"><title>Page 1</title><path d="M139.49 20.19c-.158 3.24-2.275 6.695-4.393 9.67.9-3.187 2.223-6.43 4.393-9.67zm-5.186 18.012l-.053-2.072c0-.372.054-1.86.424-2.125 3.44-2.498 4.446-4.57 7.462-9.033.583-.85 1.27-3.135 1.27-3.56 0-.372-.423-1.328-.793-1.806-.37-.585-1.006-.744-1.27-.957-.9-.798-1.906-1.913-2.753-2.073-.423-.212-1.058-.425-1.48-.425-1.43.16-5.664 7.81-5.664 7.97-.9 2.072-1.747 3.88-2.17 5.526-.16 1.115-.37 3.08-.37 3.56 0 .37.158 1.328.21 1.966 0 .425 2.012 4.728 3.653 4.728.422-.053.157.053.528.053.053.054 2.964 1.17 3.652 1.063 2.434-.053 8.52-7.438 9.05-9.192-3.705 2.338-7.304 5.526-11.696 6.376zm-4.92-15.514c.423-1.276.793-2.18 1.058-2.71.582-1.275 1.058-.638 1.058-1.54 0-1.01-1.535-1.223-2.593-1.223-2.594 0-4.446 2.497-5.928 6.163-1.536 3.826-2.383 6.96-3.07 8.874-1.218-4.092-.9-7.545-1.112-11.743-.053-.85.212-1.967.16-2.817-.054-.585-1.007-1.17-1.59-1.17-.37 0-.74.214-1.11.214-.74.85-.794 4.94-.794 6.535 0 1.966.265 3.985.635 6.907.422 2.92.846 5.63 1.428 7.172.688 2.02 3.176 4.623 4.71 4.623 1.482 0 1.906-.85 1.906-2.126 0-.372 0-.744-.053-1.17-.37-.265-.528-.53-.528-.903 0-1.17 4.55-11.636 4.71-11.954.317-.797.688-1.86 1.11-3.135zm-13.812-12.22c-.265-.267-2.117-.904-2.752-.904-2.064-.053-3.387 1.7-3.546 3.772.635.372 1.482.85 1.852.903.9 0 4.605-1.01 4.605-2.71.054-.425 0-.797-.158-1.063zm-6.034 28.32l.106-3.19c0-.477 3.493-13.92 3.493-14.345 0-1.328-1.164-4.144-3.017-4.304-3.387 3.24-4.87 8.34-5.134 12.06-.158.69-.423 2.02-.423 2.392 0 .25 0 1.01.054 1.81-2.04 1.712-5.258 4.247-7.62 4.247-2.38 0-2.698-1.33-2.698-3.296 0-2.497 1.163-5.366 1.587-7.438.264-1.275.794-3.72 1.058-4.092.37-.637 2.064-.956 2.435-.956 1.058.16 3.6-1.01 5.134-1.806.635-.372 1.64-.532 2.805-1.382-1.27-.478-2.383-.69-3.918-.85-1.534-.16-3.387-.16-4.657-.32.582-3.665 1.006-7.756-1.588-10.944-2.964 3.666-4.657 6.057-6.35 10.945-.16.48-.266.373-.69.373-.37 0-.528-.053-.95-.053-.372 0-1.325-.106-1.325.744 0 .425.106.584.265 1.01.424.16 1.06.477 1.06.85.052.637.157 1.01.37 1.062.264.266.37.53.37.797-.053.372-.847 5.42-.636 5.792 0 .425.054.637.054.85 0 3.294.265 6.588 3.388 9.83.37.16.635-.054.794.16.582.37 1.058.955 1.323 1.22 1.11.692 2.38 1.17 3.386 1.17.9 0 2.7-.53 3.228-1.063.212-.16.318-.478.688-.637.053-.638.212-1.382.582-2.02 0-.16-.21-.265-.21-.425.634-.478 1.322-1.17 1.693-1.806.25-.334.382-.813.483-1.255.036.32.084.626.148.882.16.85.53 1.913.953 2.497.477.956 1.8 2.762 2.012 2.762.424.053-.106-.16.318-.106.37 0 1.217.797 1.64.85.424 0 0-.106.424-.106.423 0 .317.478.74.478.53.106 2.594-1.328 2.594-2.444l.053-1.116c-1.322.638-2.328 1.275-3.333 1.275-.424 0-.53.053-.69-.106zm-43.6-18.598c-.16 3.24-2.277 6.695-4.394 9.67.9-3.187 2.223-6.43 4.393-9.67zm10.74 15.462c-.264-3.56 3.6-12.008 5.08-14.4.16-.265.372-.37.53-.37.16.477.582 1.168.635 1.54 0 .32-.21.69-.582 1.116l.742-.053c.9-.585 2.17-1.17 2.964-1.382.265-.16.476-.372.635-.637.16-.638.424-1.594.424-2.02-.105-1.38-3.387-2.39-4.128-2.55-.317-.16-2.487-.85-2.858-.85-.847.16-2.33 2.125-2.858 2.922-2.74 4.323-6.065 9.644-6.218 13.78-3.225 2.186-6.455 4.712-10.292 5.455l-.053-2.073c0-.372.053-1.86.423-2.125 3.44-2.497 4.446-4.57 7.463-9.033.582-.85 1.27-3.134 1.27-3.56 0-.37-.423-1.328-.794-1.806-.37-.584-1.006-.744-1.27-.956-.9-.797-1.906-1.913-2.753-2.073-.423-.212-1.06-.425-1.482-.425-1.43.16-5.663 7.81-5.663 7.97-.9 2.072-1.746 3.88-2.17 5.526-.158 1.116-.37 3.082-.37 3.56 0 .372.16 1.328.212 1.966 0 .425 2.01 4.728 3.65 4.728.425-.053.16.054.53.054.054.053 2.964 1.17 3.653 1.062 1.81-.04 5.645-4.14 7.706-6.957.463 3.366 4.127 6.945 8.486 6.533 1.852-.16 4.974-2.975 6.086-4.675-.37-.744 1.11-1.7 1.693-2.285.582-.69 1.164-1.488 1.64-1.913-3.6 2.444-7.303 6.695-10.797 7.28-1.006-.32-1.535-2.657-1.535-3.348zM52.6 30.18c.16-.638.583-1.116.53-1.488.053-.266.16-.478.212-.638l.74-3.135c1.27-5.58 2.382-9.67 3.07-13.656.424-2.178 1.06-6.057 1.06-6.376 0-.372 0-2.178-.213-3.028C58 1.594 56.78 0 56.093 0H55.3c-1.906 4.73-3.97 9.99-5.452 14.187-.793 2.178-2.54 12.22-2.54 15.94 0 1.115.212 3.24.9 5.95.794 2.604 2.01 4.942 4.604 4.942.318 0 .635-.054.953-.214-.582-.16-1.376-.318-1.588-.69-.424-.69-.635-1.966-.635-2.338 0-.266.105-1.594.264-3.295.16-1.7.424-2.87.795-4.304zm-9.313 0c.16-.638.583-1.116.53-1.488.053-.266.158-.478.21-.638l.742-3.135c1.27-5.58 2.38-9.67 3.07-13.656.422-2.178 1.057-6.057 1.057-6.376 0-.372 0-2.178-.21-3.028 0-.266-1.22-1.86-1.907-1.86h-.794c-1.905 4.73-3.97 9.99-5.45 14.187-.795 2.178-2.54 12.22-2.54 15.94 0 1.115.21 3.24.9 5.95.792 2.604 2.01 4.942 4.603 4.942.316 0 .634-.054.952-.214-.583-.16-1.377-.318-1.588-.69-.424-.69-.635-1.966-.635-2.338 0-.266.104-1.594.263-3.295.16-1.7.424-2.87.794-4.304zm-19.26 8.34c-.213-.636-.478-1.486-.425-1.965 0-.372.265-3.347.688-4.622.053-.372.635-1.17.794-1.86.635-2.816 1.27-6.216 3.758-10.2.423.796.794 1.91.952 2.92 0 1.914.106 5.314.106 5.74-.158 3.293-3.704 9.244-5.874 9.988zm11.007-14.185c0-.372.053-.904 0-1.116-.582-1.223-1.058-2.02-1.693-2.924-.264-.584-.21-1.7-1.48-2.072-.636-.16-1.43-.053-2.012-.212.158-.425.635-1.116 1.005-1.54-.37-.373-.688-.798-1.11-.798-.425 0-2.012-.16-2.49.32-4.127 4.568-7.937 11.847-8.202 17.745v.158c-2.6.992-5.16 1.984-8.783 2.976-.688.16-1.8.744-2.223.744-.846 0-1.905-2.816-1.905-3.24-.16-.798-.16-2.073-.16-2.5 0-.158.053-.742.16-1.646.105-.956.21-1.647.317-2.072.158-.478.53-1.01.53-1.38.475-2.924 1.693-6.484 3.386-9.512 1.112-2.073 2.33-4.357 4.922-6.217.16.904.318 2.073.318 2.498 0 .372-.265.638-.265.903.16 1.223-1.376 3.72-1.376 4.093 0 .637 1.27 1.594 1.958 1.594.477 0 2.647-1.86 3.493-2.71.688-.638 1.218-1.594 1.64-2.285.16-.372-.21-1.54.32-1.435.21 0 .21-1.275-.32-2.284-.846-1.54-3.227-4.09-4.974-5.048-.583-.212-1.112-1.275-1.96-1.275-1.534 0-5.927 3.082-8.308 5.048C1.588 13.814 0 20.03 0 24.758c0 2.286.265 5.74 1.164 8.13.9 2.392 2.33 4.73 4.446 6.642.37.425 1.11.32 1.323.478 1.323.48 1.482.532 1.906.425.475 0 2.327.32 2.75.32.53 0 2.012-1.064 2.86-1.382-.16 0-.213.054-.266.054-.053.053-.106.053-.16.053l-.37-.425c.583-.372 1.006-.85 1.377-1.01 1.205-.375 2.7-1.305 4.134-2.202.265 1.882 1.16 3.975 4.174 5.07.424.16 1.323.427 1.747.427.423 0 2.646-.585 3.916-1.01 1.27-.584 2.49-1.86 2.912-2.657.106-.16.265-.212.423-.212.106-.372.265-.69.477-.903 1.058-1.488 2.91-5.048 3.07-7.758 0-.372-.212-2.87-.477-3.93l-.37-.532z" fill="#FFF" fill-rule="evenodd"/></svg>