<?xml version="1.0"?>
<svg xmlns="http://www.w3.org/2000/svg" xmlns:xlink="http://www.w3.org/1999/xlink" xmlns:svgjs="http://svgjs.com/svgjs" version="1.1" width="512" height="512" x="0" y="0" viewBox="0 0 64 64" style="enable-background:new 0 0 512 512" xml:space="preserve" class=""><g><path xmlns="http://www.w3.org/2000/svg" d="m40.5 52.006c.83 0 1.5.67 1.5 1.5s-.67 1.5-1.5 1.5h-17.01c-.83 0-1.5-.67-1.5-1.5s.67-1.5 1.5-1.5z" fill="#656d78" data-original="#656d78" style="" class=""/><path xmlns="http://www.w3.org/2000/svg" d="m63 6.994v2h-62v-2c0-1.1.89-2 2-2h58c1.11 0 2 .901 2 2z" fill="#ccd1d9" data-original="#ccd1d9" style="" class=""/><path xmlns="http://www.w3.org/2000/svg" d="m41.9 17.096c5.47 5.469 5.47 14.33 0 19.799-5.471 5.471-14.33 5.471-19.801 0-5.47-5.469-5.47-14.33 0-19.799 5.471-5.471 14.331-5.471 19.801 0z" fill="#ed5565" data-original="#ed5565" style=""/><path xmlns="http://www.w3.org/2000/svg" d="m41.9 17.096c-3.118-3.119-7.337-4.453-11.402-4.016 3.067.328 6.047 1.662 8.399 4.016 5.47 5.469 5.47 14.33 0 19.799-2.353 2.354-5.332 3.686-8.399 4.016 4.065.436 8.284-.896 11.402-4.016 5.47-5.469 5.47-14.331 0-19.799z" fill="#da4453" data-original="#da4453" style=""/><path xmlns="http://www.w3.org/2000/svg" d="m63 8.994v50.012h-62v-50.012zm-21.1 27.901c5.47-5.469 5.47-14.33 0-19.799-5.471-5.471-14.33-5.471-19.801 0-5.47 5.469-5.47 14.33 0 19.799 5.471 5.47 14.331 5.47 19.801 0zm.1 16.611c0-.83-.67-1.5-1.5-1.5h-17.01c-.83 0-1.5.67-1.5 1.5s.67 1.5 1.5 1.5h17.01c.83 0 1.5-.67 1.5-1.5z" fill="#e6e9ed" data-original="#e6e9ed" style="" class=""/><path xmlns="http://www.w3.org/2000/svg" d="m1 7.998c-.553 0-1-.447-1-1 0-1.654 1.346-3 3-3 .553 0 1 .447 1 1s-.447 1-1 1c-.552 0-1 .448-1 1 0 .553-.447 1-1 1z" fill="#34495e" data-original="#000000" style="" class=""/><path xmlns="http://www.w3.org/2000/svg" d="m63 7.998c-.553 0-1-.447-1-1 0-.552-.448-1-1-1-.553 0-1-.447-1-1s.447-1 1-1c1.654 0 3 1.346 3 3 0 .553-.447 1-1 1z" fill="#34495e" data-original="#000000" style="" class=""/><path xmlns="http://www.w3.org/2000/svg" d="m61 5.998h-58c-.553 0-1-.447-1-1s.447-1 1-1h58c.553 0 1 .447 1 1s-.447 1-1 1z" fill="#34495e" data-original="#000000" style="" class=""/><path xmlns="http://www.w3.org/2000/svg" d="m4.03 7.998c-.553 0-1.005-.447-1.005-1s.442-1 .994-1h.011c.552 0 1 .447 1 1s-.448 1-1 1z" fill="#34495e" data-original="#000000" style="" class=""/><path xmlns="http://www.w3.org/2000/svg" d="m7.029 7.998c-.553 0-1.005-.447-1.005-1s.442-1 .994-1h.011c.552 0 1 .447 1 1s-.448 1-1 1z" fill="#34495e" data-original="#000000" style="" class=""/><path xmlns="http://www.w3.org/2000/svg" d="m10.032 7.998c-.553 0-1.005-.447-1.005-1s.442-1 .994-1h.011c.552 0 1 .447 1 1s-.448 1-1 1z" fill="#34495e" data-original="#000000" style="" class=""/><path xmlns="http://www.w3.org/2000/svg" d="m1 60.002c-.553 0-1-.447-1-1v-52.004c0-.553.447-1 1-1s1 .447 1 1v52.004c0 .553-.447 1-1 1z" fill="#34495e" data-original="#000000" style="" class=""/><path xmlns="http://www.w3.org/2000/svg" d="m63 60.002c-.553 0-1-.447-1-1v-52.004c0-.553.447-1 1-1s1 .447 1 1v52.004c0 .553-.447 1-1 1z" fill="#34495e" data-original="#000000" style="" class=""/><path xmlns="http://www.w3.org/2000/svg" d="m63 9.998h-62c-.553 0-1-.447-1-1s.447-1 1-1h62c.553 0 1 .447 1 1s-.447 1-1 1z" fill="#34495e" data-original="#000000" style="" class=""/><path xmlns="http://www.w3.org/2000/svg" d="m63 60.002h-62c-.553 0-1-.447-1-1s.447-1 1-1h62c.553 0 1 .447 1 1s-.447 1-1 1z" fill="#34495e" data-original="#000000" style="" class=""/><path xmlns="http://www.w3.org/2000/svg" d="m31.999 41.997c-4.007 0-7.773-1.56-10.606-4.393s-4.394-6.6-4.393-10.606c0-4.007 1.561-7.774 4.394-10.607s6.6-4.394 10.606-4.394c4.007 0 7.773 1.561 10.606 4.394s4.394 6.599 4.394 10.606-1.561 7.773-4.394 10.606-6.6 4.394-10.607 4.394zm.001-28c-3.472 0-6.736 1.353-9.192 3.808-2.455 2.456-3.808 5.72-3.808 9.193-.001 3.473 1.352 6.737 3.807 9.192s5.72 3.807 9.192 3.807 6.737-1.352 9.193-3.808c2.455-2.455 3.808-5.719 3.808-9.192s-1.353-6.737-3.808-9.192-5.719-3.808-9.192-3.808z" fill="#34495e" data-original="#000000" style="" class=""/><path xmlns="http://www.w3.org/2000/svg" d="m40.505 56.005h-17.014c-.553 0-1-.447-1-1s.447-1 1-1h17.014c.553 0 1 .447 1 1s-.447 1-1 1z" fill="#34495e" data-original="#000000" style="" class=""/><path xmlns="http://www.w3.org/2000/svg" d="m40.505 53.005h-17.014c-.553 0-1-.447-1-1s.447-1 1-1h17.014c.553 0 1 .447 1 1s-.447 1-1 1z" fill="#34495e" data-original="#000000" style="" class=""/><path xmlns="http://www.w3.org/2000/svg" d="m23.491 56.005c-1.379 0-2.5-1.121-2.5-2.5s1.121-2.5 2.5-2.5c.553 0 1 .447 1 1s-.447 1-1 1c-.275 0-.5.225-.5.5s.225.5.5.5c.553 0 1 .447 1 1s-.447 1-1 1z" fill="#34495e" data-original="#000000" style="" class=""/><path xmlns="http://www.w3.org/2000/svg" d="m40.505 56.005c-.553 0-1-.447-1-1s.447-1 1-1c.275 0 .5-.225.5-.5s-.225-.5-.5-.5c-.553 0-1-.447-1-1s.447-1 1-1c1.379 0 2.5 1.121 2.5 2.5s-1.121 2.5-2.5 2.5z" fill="#34495e" data-original="#000000" style="" class=""/><path xmlns="http://www.w3.org/2000/svg" d="m55.005 46.008h-46.014c-.553 0-1-.447-1-1s.447-1 1-1h46.014c.553 0 1 .447 1 1s-.447 1-1 1z" fill="#34495e" data-original="#000000" style="" class=""/><path xmlns="http://www.w3.org/2000/svg" d="m46.003 49.009h-28.01c-.553 0-1-.447-1-1s.447-1 1-1h28.01c.553 0 1 .447 1 1s-.447 1-1 1z" fill="#34495e" data-original="#000000" style="" class=""/><path xmlns="http://www.w3.org/2000/svg" d="m27.051 32.946c-.256 0-.512-.098-.707-.293-.391-.391-.391-1.023 0-1.414l9.897-9.896c.391-.391 1.023-.391 1.414 0s.391 1.023 0 1.414l-9.897 9.896c-.195.196-.451.293-.707.293z" fill="#34495e" data-original="#000000" style="" class=""/><path xmlns="http://www.w3.org/2000/svg" d="m36.948 32.946c-.256 0-.512-.098-.707-.293l-9.897-9.896c-.391-.391-.391-1.023 0-1.414s1.023-.391 1.414 0l9.897 9.896c.391.391.391 1.023 0 1.414-.195.196-.451.293-.707.293z" fill="#34495e" data-original="#000000" style="" class=""/></g></svg>
